<?xml version="1.0" encoding="UTF-8"?>
<svg xmlns="http://www.w3.org/2000/svg"
     viewBox="0 0 6000 3000"
     preserveAspectRatio="xMidYMid meet">

  <g fill="#ffffff">
    <path d="M5360 2465 c-13 -14 -19 -25 -13 -25 6 0 16 7 23 15 7 8 19 15 26 15
    8 0 14 5 14 10 0 18 -26 10 -50 -15z"/>
    <path d="M5235 2415 c-11 -12 -16 -22 -12 -22 5 0 14 6 20 14 5 7 17 15 25 18
    15 7 14 9 -13 -10z"/>
    <path d="M5220 2311 c-3 -3 -1 -5 4 -5 6 0 11 2 11 4 0 3 -5 5 -11 5 -5 0 -9 -2
    -4 -4z"/>
    <path d="M5130 2286 c-13 -15 -38 -21 -38 -9 0 5 6 10 14 10 8 0 21 8 30 18 9
    9 19 15 22 12 3 -3 -3 -16 -28 -31z"/>
    <path d="M5015 2375 c-11 -12 -16 -23 -12 -23 5 0 14 6 20 14 14 19 14 23 -8
    18z"/>
    <path d="M4860 2370 c-12 -10 -26 -27 -32 -38 -7 -12 -19 -25 -27 -29 -8 -4
    -15 -11 -15 -16 0 -8 -33 -51 -89 -109 -31 -34 -56 -65 -56 -69 0 -3 -9 -14
    -20 -24 -11 -11 -20 -23 -20 -28 0 -10 -244 -247 -252 -240 -3 2 -10 -3 -15
    -11 -6 -8 -22 -23 -36 -35 -15 -13 -27 -27 -27 -30 0 -4 -8 -13 -18 -21 -10
    -9 -18 -20 -18 -26 0 -6 -9 -18 -21 -27 -11 -9 -19 -22 -17 -28 3 -5 -1 -10
    -9 -11 -8 -1 -15 3 -15 9 0 5 -8 1 -18 -9 -10 -9 -22 -15 -26 -12 -5 3 -14 -2
    -21 -11 -8 -10 -19 -16 -26 -14 -6 2 -13 -3 -15 -11 -1 -8 -6 -15 -10 -15 -4
    0 -14 -15 -21 -34 -6 -18 -16 -42 -22 -51 -6 -9 -10 -23 -9 -30 1 -7 -1 -17
    -5 -22 -5 -5 -8 -14 -8 -21 1 -7 -7 -33 -17 -58 -11 -25 -20 -56 -20 -68 0
    -11 -7 -28 -15 -37 -8 -9 -15 -21 -15 -28 0 -7 -7 -19 -15 -26 -8 -7 -15 -17
    -15 -22 0 -6 -2 -16 -4 -23 -3 -8 -15 -37 -27 -63 -12 -26 -23 -53 -24 -60 -1
    -7 -6 -13 -11 -13 -14 0 -108 -118 -124 -153 -7 -14 -17 -26 -22 -26 -6 0 -14
    -9 -18 -20 -4 -11 -18 -32 -32 -46 -14 -14 -27 -30 -29 -35 -3 -4 -20 -25
    -38 -45 -18 -21 -33 -44 -34 -52 -1 -7 -10 -24 -20 -37 -11 -14 -20 -29 -20
    -34 0 -5 -9 -22 -20 -37 -11 -15 -20 -35 -20 -45 0 -9 -4 -23 -10 -31 -5 -8
    -10 -21 -10 -29 0 -8 -7 -20 -15 -27 -8 -7 -15 -19 -15 -27 0 -8 -4 -21 -10
    -29 -5 -8 -10 -20 -10 -27 0 -7 -4 -19 -9 -25 -5 -6 -16 -18 -25 -27 -9 -8
    -16 -19 -16 -25 0 -6 -7 -19 -15 -29 -8 -10 -15 -25 -15 -35 0 -10 -4 -26 -10
    -35 -5 -10 -10 -25 -10 -34 0 -9 -7 -20 -15 -24 -8 -4 -15 -13 -15 -20 0 -7
    -6 -17 -14 -22 -8 -4 -16 -15 -18 -25 -1 -10 -8 -22 -15 -27 -7 -5 -15 -15
    -18 -22 -4 -7 -16 -17 -27 -22 -11 -5 -23 -15 -26 -22 -4 -7 -11 -11 -15 -8
    -7 7 288 311 307 318 7 3 16 15 22 26 7 12 19 25 28 30 9 5 20 17 24 26 3 9 25
    41 49 70 24 29 63 82 87 117 24 35 51 69 61 76 10 8 19 20 19 27 0 25 54 48 96
    42 16 -2 58 21 58 32 0 3 9 12 20 19 11 7 20 18 20 25 0 7 10 23 22 36 12 14
    22 31 22 38 0 9 6 19 14 25 8 5 19 22 25 39 6 17 18 32 26 32 8 0 14 4 14 10 0
    5 10 22 22 37 12 15 28 40 36 55 8 15 22 29 30 32 8 3 15 15 15 26 0 11 4 17
    10 14 5 -3 15 4 21 15 6 10 22 21 35 24 14 4 35 15 48 25 13 10 34 22 45 26
    11 3 19 11 17 17 -1 6 4 14 12 19 8 5 20 21 26 35 6 14 17 26 23 26 6 0 18
    14 27 30 9 17 23 33 31 36 7 3 13 15 13 26 0 10 5 22 10 25 6 3 10 14 10 24 0
    10 6 22 14 25 8 3 24 22 36 42 12 19 30 43 40 53 10 10 22 25 26 32 4 7 22
    26 40 42 18 16 36 36 40 45 4 9 17 21 29 26 12 5 21 15 21 22 0 7 8 17 18 23
    10 5 23 19 29 30 7 12 19 25 28 31 9 6 20 19 24 28 3 10 19 24 35 31 17 6 31
    15 31 18 0 3 10 12 23 20 12 8 27 21 34 28 7 7 16 12 20 12 4 0 14 11 22 25
    8 14 17 25 20 25 4 0 14 13 23 30 10 16 23 30 30 30 7 0 19 8 27 18 9 11 21
    18 28 18 7 0 17 7 22 15 6 8 20 15 32 15 12 0 23 4 23 9 0 5 6 9 14 9 7 0 19
    9 26 20 8 11 28 33 44 48 20 21 32 40 32 52 0 10 5 24 10 31 6 8 10 23 10 34
    0 11 9 22 20 25 11 2 20 11 20 19 0 8 11 19 24 25 14 6 30 19 36 30 7 11 19
    21 27 23 9 2 22 14 30 26 9 12 17 19 17 14 0 -15 -76 -158 -100 -180 -13 -11
    -27 -27 -30 -36 -3 -9 -11 -15 -18 -13 -7 2 -15 -2 -18 -9 -4 -7 -11 -11 -16
    -9 -5 2 -8 0 -8 -6 0 -7 -15 -22 -34 -34z"/>
  </g>
</svg>
